# AST/ASF file generated using VICON BodyLanguage
# -----------------------------------------------
:version 1.10
:name VICON
:units
  mass 1.0
  length 0.45
  angle deg
:documentation
   .ast/.asf automatically generated from VICON data using
   VICON BodyBuilder and BodyLanguage model FoxedUp or BRILLIANT.MOD
:root
   order TX TY TZ RX RY RZ
   axis XYZ
   position 0 0 0  
   orientation 0 0 0 
:bonedata
  begin
     id 1 
     name lhipjoint
     direction 0.547975 -0.797114 0.253638 
     length 2.36201 
     axis 0 0 0  XYZ
  end
  begin
     id 2 
     name lfemur
     direction 0.34202 -0.939693 0  
     length 7.69075  
     axis 0 0 20  XYZ
    dof rx ry rz
    limits (-160.0 20.0)
           (-70.0 70.0)
           (-60.0 70.0)
  end
  begin
     id 3 
     name ltibia
     direction 0.34202 -0.939693 0   
     length 7.91399   
     axis 0 0 20   XYZ
    dof rx
    limits (-10.0 170.0)
  end
  begin
     id 4 
     name lfoot
     direction 0.0705293 -0.193778 0.978507   
     length 2.13618   
     axis -90 7.62852e-016 20   XYZ
    dof rx rz
    limits (-45.0 90.0)
           (-70.0 20.0)
  end
  begin
     id 5 
     name ltoes
     direction 1.53592e-011 -4.21925e-011 1   
     length 1.07518   
     axis -90 7.62852e-016 20   XYZ
    dof rx
    limits (-90.0 20.0)
  end
  begin
     id 6 
     name rhipjoint
     direction -0.57 -0.782963 0.249136   
     length 2.4047  
     axis 0 0 0  XYZ 
  end
  begin
     id 7 
     name rfemur
     direction -0.34202 -0.939693 0   
     length 7.51486   
     axis 0 0 -20   XYZ
    dof rx ry rz
    limits (-160.0 20.0)
           (-70.0 70.0)
           (-70.0 60.0)
  end
  begin
     id 8 
     name rtibia
     direction -0.34202 -0.939693 0   
     length 8.08317   
     axis 0 0 -20   XYZ
    dof rx
    limits (-10.0 170.0)
 end
 begin
     id 9 
     name rfoot
     direction -0.104954 -0.281256 0.953876   
     length 2.30343  
     axis -90 -7.62852e-016 -20   XYZ
    dof rx rz
    limits (-45.0 90.0)
           (-20.0 70.0)
  end
  begin
     id 10 
     name rtoes
     direction -1.53556e-011 -4.21922e-011 1   
     length 1.14803   
     axis -90 -7.62852e-016 -20   XYZ
    dof rx
    limits (-90.0 20.0)
  end
  begin
     id 11 
     name lowerback
     direction -0.0152855 0.99353 -0.11254   
     length 2.05311   
     axis 0 0 0   XYZ
    dof rx ry rz
    limits (-20.0 45.0)
           (-30.0 30.0)
           (-30.0 30.0)
  end
  begin
     id 12 
     name upperback
     direction -0.00157509 0.999443 -0.033332   
     length 2.06353   
     axis 0 0 0   XYZ
    dof rx ry rz
    limits (-20.0 45.0)
           (-30.0 30.0)
           (-30.0 30.0)
  end
  begin
     id 13 
     name thorax
     direction 0.00577788 0.999804 0.0189484   
     length 2.08472   
     axis 0 0 0   XYZ
    dof rx ry rz
    limits (-20.0 45.0)
           (-30.0 30.0)
           (-30.0 30.0)
  end
  begin
     id 14 
     name lowerneck
     direction -1.09301e-005 0.994719 0.10264   
     length 1.76249   
     axis 0 0 0   XYZ
    dof rx ry rz
    limits (-20.0 45.0)
           (-30.0 30.0)
           (-30.0 30.0)
  end
  begin
     id 15 
     name upperneck
     direction 0.0495018 0.988526 -0.142706   
     length 1.77897   
     axis 0 0 0   XYZ
    dof rx ry rz
    limits (-20.0 45.0)
           (-30.0 30.0)
           (-30.0 30.0)
  end
  begin
     id 16
     name head
     direction 0.0142736 0.998114 -0.0597101  
     length 1.78934  
     axis 0 0 0   XYZ
    dof rx ry rz
    limits (-20.0 45.0)
           (-30.0 30.0)
           (-30.0 30.0)
  end
  begin
     id 17 
     name lclavicle
     direction 0.918111 0.396107 -0.0130883  
     length 3.37276  
     axis 0 0 0   XYZ
    dof ry rz
    limits (-20.0 10.0)
           (0.0 20.0)
  end
  begin
     id 18 
     name lhumerus
     direction 1 -4.48975e-011 -3.26108e-027   
     length 5.34298   
     axis 180 -30 -90   XYZ
    dof rx ry rz
    limits (-60.0 90.0)
           (-90.0 90.0)
           (-90.0 90.0)
  end
  begin
     id 19
     name lradius
     direction 1 -4.48964e-011 -8.84413e-028   
     length 3.67262   
     axis 180 -30 -90   XYZ
    dof rx
    limits (-10.0 170.0)
  end
  begin
     id 20
     name lwrist
     direction 1 -4.48991e-011 -1.24264e-027   
     length 1.83631   
     axis -2.17013e-015 90 90   XYZ
    dof ry
    limits (-180.0 0.0)
 end
  begin
     id 21 
     name lhand
     direction 1 -4.48855e-011 -2.48528e-027   
     length 0.599298   
     axis 1.58582e-015 90 90   XYZ
    dof rx rz
    limits (-90.0 90.0)
           (-45.0 45.0)
  end
  begin
     id 22 
     name lfingers
     direction 1 -4.48811e-011 -4.97056e-027   
     length 0.48317   
     axis 3.17164e-015 90 90   XYZ
    dof rx
    limits (0.0 90.0)
  end
  begin
     id 23
     name lthumb
     direction 0.707107 -6.34882e-011 0.707107   
     length 0.693738   
     axis -90 45 2.85299e-015   XYZ
    dof rx rz
    limits (-45.0 45.0)
           (-45.0 45.0)
  end
  begin
     id 24 
     name rclavicle
     direction -0.920511 0.384752 -0.0680135   
     length 3.43787  
     axis 0 0 0   XYZ 
    dof ry rz
    limits (-10.0 20.0)
           (-20.0 0.0)
  end
  begin
     id 25 
     name rhumerus
     direction -0.999976 -0.00330524 0.00603274  
     length 5.5498   
     axis 180 30 90   XYZ
    dof rx ry rz
    limits (-90.0 60.0)
           (-90.0 90.0)
           (-90.0 90.0)
  end
  begin
     id 26 
     name rradius
     direction -1 -4.48967e-011 8.62438e-027   
     length 3.69401   
     axis 180 30 90   XYZ
    dof rx
    limits (-10.0 170.0)
  end
  begin
     id 27 
     name rwrist
     direction -1 -4.4897e-011 9.54866e-027   
     length 1.84701   
     axis -7.69462e-015 -90 -90   XYZ
    dof ry
    limits (-180.0 0.0)
  end
  begin
     id 28
     name rhand
     direction -1 -4.48982e-011 1.90973e-026   
     length 0.638113   
     axis -1.21857e-014 -90 -90   XYZ
    dof rx rz
    limits (-90.0 90.0)
           (-45.0 45.0)
  end
  begin
     id 29
     name rfingers
     direction -1 -4.48936e-011 3.81946e-026   
     length 0.514463   
     axis -2.43714e-014 -90 -90   XYZ
    dof rx
    limits (0.0 90.0)
  end
  begin
     id 30
     name rthumb
     direction -0.707107 -6.34942e-011 0.707107   
     length 0.738669   
     axis -90 -45 -2.85299e-015   XYZ
    dof rx rz
    limits (-45.0 45.0)
           (-45.0 45.0)
  end
:hierarchy
  begin
    root lhipjoint rhipjoint lowerback
    lhipjoint lfemur
    lfemur ltibia
    ltibia lfoot
    lfoot ltoes
    rhipjoint rfemur
    rfemur rtibia
    rtibia rfoot
    rfoot rtoes
    lowerback upperback
    upperback thorax
    thorax lowerneck lclavicle rclavicle
    lowerneck upperneck
    upperneck head
    lclavicle lhumerus
    lhumerus lradius
    lradius lwrist
    lwrist lhand lthumb
    lhand lfingers
    rclavicle rhumerus
    rhumerus rradius
    rradius rwrist
    rwrist rhand rthumb
    rhand rfingers
  end

#!OML:ASF F:\twosubjects\two\Thursday\Session 1\Rory.ASF
:FULLY-SPECIFIED
:DEGREES
80
root 7.96539 18.3272 -9.62467 -0.546255 -1.34149 4.5605
lowerback -3.14042 0.934862 0.764363
upperback 0.754784 1.32027 -4.08881
thorax 2.6553 0.706652 -4.58463
lowerneck -6.3655 -4.30602 -1.26715
upperneck 37.2511 -11.4194 13.8565
head 15.1084 -3.47995 4.41999
rclavicle 7.3659e-015 -3.57812e-015
rhumerus -32.8649 -14.8675 -82.7117
rradius 30.4616
rwrist 21.0829
rhand -26.1463 25.8745
rfingers 7.12502
rthumb 0.404432 -4.10488
lclavicle 7.3659e-015 -3.57812e-015
lhumerus -28.4808 23.1542 72.1946
lradius 21.0799
lwrist -27.7529
lhand -14.4503 28.6756
lfingers 7.12502
lthumb 11.6949 58.3292
rfemur -2.0562 3.31216 14.2586
rtibia 20.1614
rfoot -16.717 -15.7146
rtoes -4.17676
lfemur -6.48993 -2.12667 -21.1824
ltibia 18.53
lfoot -11.1877 1.01212
ltoes 7.19444
81
root 7.94144 18.3244 -9.62951 -0.56301 -1.07771 4.64657
lowerback -3.14848 0.908792 0.610722
upperback 0.838581 1.29708 -4.17884
thorax 2.74319 0.695567 -4.5926
lowerneck -6.87591 -4.38108 -0.980809
upperneck 37.6417 -11.6407 13.7168
head 15.4317 -3.5095 4.2905
rclavicle 8.15871e-015 -1.51076e-014
rhumerus -32.8135 -15.0254 -82.7641
rradius 30.3745
rwrist 21.1049
rhand -26.3342 26.1103
rfingers 7.12502
rthumb 0.223011 -3.86933
lclavicle 8.15871e-015 -1.51076e-014
lhumerus -28.4851 23.1557 72.1189
lradius 20.7462
lwrist -27.9674
lhand -15.2126 29.172
lfingers 7.12502
lthumb 10.9597 58.8659
rfemur -1.84218 3.82766 14.3555
rtibia 19.9794
rfoot -16.7797 -16.3143
rtoes -3.16098
lfemur -6.49798 -2.54003 -21.1931
ltibia 18.5603
lfoot -11.2358 1.1008
ltoes 5.7771
82
root 7.92063 18.3214 -9.63046 -0.600686 -0.936034 4.85554
lowerback -3.20864 0.841704 0.347349
upperback 0.895125 1.22373 -4.26376
thorax 2.8256 0.656753 -4.53533
lowerneck -6.99892 -4.37269 -0.754958
upperneck 37.6458 -11.631 13.5729
head 15.4341 -3.48435 4.18373
rclavicle 3.68295e-015 -1.98785e-014
rhumerus -32.7133 -15.0139 -82.8029
rradius 30.1167
rwrist 21.0731
rhand -26.2089 26.5029
rfingers 7.12502
rthumb 0.343941 -3.47654
lclavicle 3.68295e-015 -1.98785e-014
lhumerus -28.8715 23.6569 71.7286
lradius 20.6595
lwrist -28.4687
lhand -15.3396 29.0755
lfingers 7.12502
lthumb 10.8372 58.7759
rfemur -1.64076 4.42046 14.2931
rtibia 19.8279
rfoot -16.8975 -16.918
rtoes -1.95206
lfemur -6.4132 -3.39897 -21.4057
ltibia 18.5428
lfoot -11.3083 1.9171
ltoes 4.99255
83
root 7.89854 18.3203 -9.63019 -0.657545 -0.865544 4.70427
lowerback -3.27433 0.90679 0.551941
upperback 0.96382 1.30691 -4.29742
thorax 2.94627 0.704794 -4.68139
lowerneck -6.75679 -4.37297 -0.647152
upperneck 37.1881 -11.6259 13.7722
head 15.1561 -3.47362 4.22657
rclavicle 3.97985e-015 2.62396e-014
rhumerus -32.6603 -15.3081 -82.7054
rradius 29.7958
rwrist 20.9455
rhand -25.7245 26.9493
rfingers 7.12502
rthumb 0.811819 -3.02891
lclavicle 3.97985e-015 2.62396e-014
lhumerus -28.9823 24.0155 71.4286
lradius 20.2778
lwrist -29.1122
lhand -15.5088 28.3691
lfingers 7.12502
lthumb 10.674 58.078
rfemur -1.48723 4.91077 14.6364
rtibia 19.7447
rfoot -16.9365 -17.5424
rtoes -1.75849
lfemur -6.39379 -2.47083 -21.1272
ltibia 18.5005
lfoot -11.1877 1.11241
ltoes 3.6619
84
root 7.87878 18.3178 -9.63113 -0.676114 -0.900849 4.67936
lowerback -3.4811 1.06684 0.652078
upperback 1.11957 1.52853 -4.37731
thorax 3.2487 0.824437 -4.80569
lowerneck -6.46667 -4.46991 -0.846687
upperneck 36.679 -11.814 14.3081
head 14.9236 -3.55608 4.44271
rclavicle -6.85807e-015 2.3059e-014
rhumerus -32.5361 -15.7042 -82.6099
rradius 29.5406
rwrist 21.0092
rhand -25.9425 26.7573
rfingers 7.12502
rthumb 0.601321 -3.22155
lclavicle -6.85807e-015 2.3059e-014
lhumerus -28.8026 24.1674 71.3445
lradius 19.8242
lwrist -29.6576
lhand -15.548 27.8168
lfingers 7.12502
lthumb 10.6361 57.5277
rfemur -1.45363 5.14345 14.7657
rtibia 19.7256
rfoot -16.9904 -17.7331
rtoes -2.02092
lfemur -6.39302 -2.14273 -21.0207
ltibia 18.49
lfoot -11.1339 0.746488
ltoes 4.19691
